<?xml version="1.0" encoding="UTF-8" standalone="no"?>
<!-- Created with Inkscape (http://www.inkscape.org/) -->

<svg
   width="21.591999mm"
   height="21.591999mm"
   viewBox="0 0 21.591999 21.591999"
   version="1.1"
   id="svg5"
   xml:space="preserve"
   sodipodi:docname="logo.svg"
   inkscape:version="1.2 (dc2aedaf03, 2022-05-15)"
   inkscape:export-filename="logo.png"
   inkscape:export-xdpi="1204.5942"
   inkscape:export-ydpi="1204.5942"
   xmlns:inkscape="http://www.inkscape.org/namespaces/inkscape"
   xmlns:sodipodi="http://sodipodi.sourceforge.net/DTD/sodipodi-0.dtd"
   xmlns="http://www.w3.org/2000/svg"
   xmlns:svg="http://www.w3.org/2000/svg"><sodipodi:namedview
     id="namedview7"
     pagecolor="#505050"
     bordercolor="#ffffff"
     borderopacity="1"
     inkscape:showpageshadow="0"
     inkscape:pageopacity="0"
     inkscape:pagecheckerboard="1"
     inkscape:deskcolor="#505050"
     inkscape:document-units="mm"
     showgrid="true"
     inkscape:zoom="17.780216"
     inkscape:cx="36.304395"
     inkscape:cy="37.119908"
     inkscape:window-width="1908"
     inkscape:window-height="1045"
     inkscape:window-x="0"
     inkscape:window-y="0"
     inkscape:window-maximized="1"
     inkscape:current-layer="g412" /><defs
     id="defs2"><filter
       style="color-interpolation-filters:sRGB"
       inkscape:label="Blur"
       id="filter366"
       x="-0.086666663"
       y="-0.033333333"
       width="1.1733333"
       height="1.0666667"><feGaussianBlur
         stdDeviation="1.3 0.5"
         result="blur"
         id="feGaussianBlur364" /></filter></defs><g
     inkscape:label="Layer 1"
     inkscape:groupmode="layer"
     id="layer1"
     transform="translate(-32.040011,-135.28723)"><g
       id="g412"
       transform="translate(0.12055724,2.1097517)"><g
         id="g427"
         transform="translate(-0.12065684,-0.09988884)"><g
           id="g128"
           transform="matrix(0.34606994,0.05538815,-0.06039522,0.31737903,42.448235,134.70262)"><path
             fill="#8899a6"
             d="M 5,36 C 3.896,36 3,35.104 3,34 V 3 C 3,1.896 3.896,1 5,1 6.104,1 7,1.896 7,3 v 31 c 0,1.104 -0.896,2 -2,2 z"
             id="path104" /><path
             fill="#aab8c2"
             d="M 5,1 C 3.895,1 3,1.895 3,3 v 31 c 0,0.276 0.224,0.5 0.5,0.5 C 3.776,34.5 4,34.276 4,34 V 4.414 C 4,3.633 4.633,3 5.414,3 H 7 C 7,1.895 6.105,1 5,1 Z"
             id="path106" /><path
             fill="#8899a6"
             d="M 5,36 C 3.896,36 3,35.104 3,34 V 3 C 3,1.896 3.896,1 5,1 6.104,1 7,1.896 7,3 v 31 c 0,1.104 -0.896,2 -2,2 z"
             id="path108" /><path
             fill="#aab8c2"
             d="M 5,1 C 3.895,1 3,1.895 3,3 v 31 c 0,0.276 0.224,0.5 0.5,0.5 C 3.776,34.5 4,34.276 4,34 V 4.414 C 4,3.633 4.633,3 5.414,3 H 7 C 7,1.895 6.105,1 5,1 Z"
             id="path110" /><path
             fill="#31373d"
             d="M 32.396,3.082 C 30.732,2.363 28.959,2.006 27,1.974 L 25.625,2.354 21,3 20,2.872 C 19.763,2.923 19.524,2.971 19.289,3.022 17.12,3.491 15.059,3.916 13,4.004 L 12,5 6,4 v 19 h 6 l 1,2 h 0.077 c 2.244,-0.096 4.472,-0.556 6.633,-1.022 L 20,23.917 20.646,23.272 26.084,22.564 27,22.974 c 1.68,0.032 3.193,0.335 4.604,0.944 0.309,0.133 0.665,0.103 0.945,-0.082 C 32.831,23.65 33,23.337 33,23 V 4 C 33,3.601 32.763,3.24 32.396,3.082 Z"
             id="path112" /><path
             fill="#e1e8ed"
             d="M 13,4.004 C 12.761,4.014 12.522,4.039 12.283,4.039 10.486,4.039 8.887,3.726 7.396,3.082 7.088,2.947 6.731,2.979 6.451,3.165 6.169,3.349 6,3.664 6,4 v 6 c 0,0 3.292,1 7,1 z M 20,10 c 0,0 -3.75,1 -7,1 v 7 c 3,0 7,-1 7,-1 z M 27,9 V 1.974 C 26.904,1.972 26.814,1.961 26.717,1.961 24.45,1.961 22.196,2.403 20,2.872 V 10 c 0,0 2.167,-1 7,-1 z M 6.604,23.918 c 1.5,0.648 3.09,0.993 4.82,1.082 H 13 V 18 C 8.833,18 6,17 6,17 v 6 c 0,0.399 0.237,0.76 0.604,0.918 z M 20,17 v 6.916 c 2.313,-0.499 4.511,-0.955 6.717,-0.955 0.097,0 0.187,0.011 0.283,0.013 V 16 c -4.5,0 -7,1 -7,1 z m 7,-1 c 2.676,0 4.82,0.56 6,0.954 V 9.908 C 31.853,9.527 29.769,9 27,9 Z"
             id="path114" /></g><g
           id="g102"
           transform="matrix(0.27178426,0.06492827,-0.14283605,0.256493,38.201479,140.77797)"
           style="filter:url(#filter366)"><path
             fill="#ffcc4d"
             d="M 36,18 C 36,27.941 27.941,36 18,36 8.06,36 0,27.941 0,18 0,8.06 8.06,0 18,0 27.941,0 36,8.06 36,18"
             id="path87" /><path
             fill="#664500"
             d="M 28.457,17.797 C 28.397,17.662 26.958,14.5 24,14.5 c -2.957,0 -4.397,3.162 -4.457,3.297 -0.092,0.207 -0.032,0.449 0.145,0.591 0.175,0.142 0.426,0.147 0.61,0.014 C 20.31,18.393 21.56,17.5 24,17.5 c 2.426,0 3.674,0.881 3.702,0.901 0.088,0.066 0.194,0.099 0.298,0.099 0.11,0 0.221,-0.037 0.312,-0.109 0.177,-0.142 0.238,-0.386 0.145,-0.594 z m -12,0 C 16.397,17.662 14.958,14.5 12,14.5 c -2.957,0 -4.397,3.162 -4.457,3.297 -0.092,0.207 -0.032,0.449 0.144,0.591 0.176,0.142 0.427,0.147 0.61,0.014 C 8.31,18.393 9.559,17.5 12,17.5 c 2.426,0 3.674,0.881 3.702,0.901 0.088,0.066 0.194,0.099 0.298,0.099 0.11,0 0.221,-0.037 0.312,-0.109 0.178,-0.142 0.237,-0.386 0.145,-0.594 z M 18,22 c -3.623,0 -6.027,-0.422 -9,-1 -0.679,-0.131 -2,0 -2,2 0,4 4.595,9 11,9 6.404,0 11,-5 11,-9 0,-2 -1.321,-2.132 -2,-2 -2.973,0.578 -5.377,1 -9,1 z"
             id="path89" /><path
             fill="#ffffff"
             d="m 9,23 c 0,0 3,1 9,1 6,0 9,-1 9,-1 0,0 -2,4 -9,4 -7,0 -9,-4 -9,-4 z"
             id="path91" /></g></g></g></g></svg>
